<svg xmlns="http://www.w3.org/2000/svg" viewBox="0 0 754.15 814.52"><defs><style>.cls-1{fill:#502680;}.cls-2{fill:#6b8e2d;}.cls-3{fill:#566c2f;}.cls-4{fill:#ec632f;}</style></defs><title>Recurso 1</title><g id="Capa_2" data-name="Capa 2"><g id="Capa_1-2" data-name="Capa 1"><path class="cls-1" d="M13.32,40.68h.25l-.2,0Z"/><path class="cls-2" d="M248.57,508.31h0c-31.46-88.58-95.15-100.57-95.15-100.57-5.94.55-23.91,3.1-44.58,14.69a1.25,1.25,0,0,0,.32,2.3s3.31.85,6.27,5.16c-4.87,1.65-21.51,6.28-35.31-1.63a1.25,1.25,0,0,0-1.73.5,9.71,9.71,0,0,0-.75,5.65c-5.31-2.38-17.88-9.09-19.92-20.05a1.25,1.25,0,0,0-2.09-.68,27.84,27.84,0,0,0-2.9,3.34,66.07,66.07,0,0,1-11.25-31.3,1.25,1.25,0,0,0-.45-.85,1.27,1.27,0,0,0-.92-.28,8,8,0,0,0-4.05,2c-.78-4.46-2-15.31.49-30.75a1.25,1.25,0,0,0-1.79-1.32,15.4,15.4,0,0,0-1.86,1.14,107,107,0,0,1,9.88-27.12,1.25,1.25,0,0,0-1-1.82,10.55,10.55,0,0,0-2.18.17c2.33-5.65,9.15-20.46,19.93-29.24a1.25,1.25,0,0,0-.17-2.05,8.29,8.29,0,0,0-3.43-.9,156.89,156.89,0,0,1,17.59-20.9S-11.92,314.63,1.41,420a121.44,121.44,0,0,0,5.31,23.68h0C28.07,525.27,155,514.65,220.23,497c1.05-.15,2.33-.32,3.79-.47C236.77,495.58,244.59,500.56,248.57,508.31Z"/><path class="cls-3" d="M522.12,375.83a55.2,55.2,0,0,1-6.84.25,98.9,98.9,0,0,1-19.48-2.24,103.15,103.15,0,0,1-29.34-11.09c-1.38-.72-2.71-1.57-4.08-2.42s-2.77-1.72-4.09-2.72-2.74-2-4.11-3l-4.06-3.34a110.14,110.14,0,0,1-15.46-16.45,128.44,128.44,0,0,1-12.77-21.18c-1-1.92-1.71-3.92-2.59-5.91l-1.27-3c-.41-1-.74-2-1.11-3.08l-2.2-6.28-1.82-6.45-.91-3.28-.73-3.3-1.45-6.71c-.42-2.25-.72-4.51-1.08-6.8s-.77-4.61-.94-6.9-.46-4.63-.66-7l-.15-1.76-.08-.88,0-.22c0,.36,0,0,0,0l0-.4-.26-3.22-.13-1.61-.16-1.43-.3-2.83c-.21-1.91-.46-3.93-.7-5.89-1.06-7.88-2.38-15.74-4.19-23.41-.92-3.82-1.89-7.63-3.07-11.34s-2.39-7.38-3.84-10.91a102.39,102.39,0,0,0-10.45-19.77,93,93,0,0,0-6.61-8.55l-1.78-2c-.59-.66-1.24-1.27-1.85-1.91l-.91-1-1-.91c-.64-.6-1.26-1.23-1.91-1.82q-3.93-3.53-8.09-6.78c-2.85-2.09-5.68-4.24-8.75-6.14-.73-.52-1.52-1-2.29-1.45l-2.33-1.42c-1.61-.88-3.17-1.85-4.83-2.69L341,135.34l-2.54-1.23c-1.67-.87-3.46-1.55-5.19-2.35-14.15-5.89-30.08-9.33-46.1-11a304.26,304.26,0,0,0-47.64-1c-15.46.78-30.22,2.47-43.89,4.34s-26.2,4.24-37.35,6.32l-8.08,1.6-7.51,1.59-13.25,2.87c-8,1.85-14.3,3.27-18.58,4.31l-6.6,1.54,5.92-3.29c3.86-2.16,9.58-5.22,16.93-9s16.38-8.19,26.94-12.91,22.63-9.75,36.1-14.75c3.38-1.22,6.81-2.52,10.38-3.68l5.38-1.81,5.53-1.74c7.43-2.37,15.25-4.5,23.38-6.55a306.15,306.15,0,0,1,52.89-8.5A224.8,224.8,0,0,1,317,80,179.48,179.48,0,0,1,348,84.63a134.8,134.8,0,0,1,31.19,11.51l3.76,2.05c1.24.72,2.47,1.47,3.69,2.23,2.47,1.47,4.81,3.18,7.18,4.84A119,119,0,0,1,407,116.62,132,132,0,0,1,427.85,144a148.73,148.73,0,0,1,7.54,15,156.72,156.72,0,0,1,5.79,15.27c1.68,5.11,3,10.23,4.22,15.32l.82,3.82c.26,1.27.48,2.54.72,3.81.49,2.53.85,5.05,1.23,7.57A203.66,203.66,0,0,1,450,234.31c-.05,2.41-.1,4.75-.19,7.17l-.18,3.66-.11,1.8-.14,1.61-.28,3.22-.24,3.15q-.22,2.87-.49,5.73c-.23,1.92-.2,3.77-.3,5.64s-.17,3.74-.2,5.58l.05,5.47,0,2.72.18,2.66.35,5.3.64,5.15c.11.85.19,1.72.33,2.56l.47,2.49c.33,1.65.58,3.33,1,4.94a109.38,109.38,0,0,0,5.89,18.24A97.83,97.83,0,0,0,465.49,337a93.44,93.44,0,0,0,10.66,12.6,89.9,89.9,0,0,0,11.43,9.64,98.6,98.6,0,0,0,11,7c3.48,1.93,6.73,3.45,9.6,4.73s5.4,2.18,7.47,2.92C519.8,375.3,522.12,375.83,522.12,375.83Z"/><path class="cls-2" d="M407.13,254.93l-.15-1.76-.08-.88,0-.22c0,.36,0,0,0,0l0-.4-.26-3.22-.13-1.61-.16-1.43-.3-2.83c-.21-1.91-.46-3.93-.7-5.89-1.06-7.88-2.38-15.74-4.19-23.41-.92-3.82-1.89-7.63-3.07-11.34,0,0-114-69.61-226.89,47.82,0,0,142.32-73.26,237.6,19-.32-2.28-.77-4.61-.94-6.9S407.33,257.27,407.13,254.93Z"/><path class="cls-3" d="M171.13,249.77h0s106.79-34.18,83.47,31.28c87.26-41.18,154.12-12.25,154.13-12.25h0C313.46,176.52,171.15,249.76,171.13,249.77Z"/><path class="cls-2" d="M421.89,313.64c-1-1.92-1.71-3.92-2.59-5.91l-1.27-3c-.41-1-.74-2-1.11-3.08l-2.2-6.28-1.82-6.45-.91-3.28-.73-3.3-1.45-6.71c-.42-2.25-.72-4.51-1.08-6.8,0,0-66.87-28.93-154.13,12.25,0,0,84.45-10.13,172.56,42.45h0C425.3,320.34,423.53,317.05,421.89,313.64Z"/><path class="cls-2" d="M293.21,79.8c-1.86.08-3.71.18-5.54.3A286.91,286.91,0,0,0,249,85.42h0s-92.82,14-182.21,71.45c0,0,15.74-7.64,43.76-16l.26-.06c4.28-1,10.6-2.46,18.58-4.31l13.25-2.87,7.51-1.59,8.08-1.6c11.15-2.09,23.67-4.46,37.35-6.32s28.43-3.56,43.89-4.34q5.67-.28,11.45-.4l1.13,0a279.49,279.49,0,0,1,35.06,1.41c16,1.7,32,5.14,46.1,11,1.73.79,3.52,1.48,5.19,2.35l2.54,1.23,2.47,1.31c1.67.84,3.22,1.81,4.83,2.69l2.33,1.42c.78.47,1.56.93,2.29,1.45,3.07,1.9,5.9,4,8.75,6.13s5.47,4.43,8.09,6.78c.65.59,1.27,1.22,1.91,1.82l1,.91.91,1c.61.64,1.26,1.25,1.85,1.91l1.78,2a92.92,92.92,0,0,1,6.61,8.55,102.09,102.09,0,0,1,10.07,18.87C382.24,159.87,347.19,81.72,293.21,79.8Z"/><path class="cls-3" d="M393.8,190.14h0q-1-2.54-2.19-5h0q-.57-1.21-1.17-2.4l-.07-.14q-.56-1.12-1.15-2.23L389,180c-.36-.66-.72-1.32-1.09-2l-.38-.65c-.32-.55-.64-1.1-1-1.64-.23-.37-.46-.74-.69-1.11s-.47-.77-.72-1.15q-.72-1.13-1.47-2.23T382.17,169c-1.18-1.61-2.42-3.16-3.68-4.68l-1.37-1.63-1.18-1.31-.6-.67c-.44-.49-.92-1-1.38-1.43l-.47-.48-.3-.32-.61-.65-1-.91c-.64-.6-1.26-1.23-1.91-1.82-1.83-1.65-3.71-3.23-5.62-4.79-.82-.67-1.63-1.34-2.46-2-2.14-1.56-4.27-3.16-6.49-4.67q-1.11-.75-2.26-1.47c-.22-.16-.45-.3-.68-.45-.53-.34-1.07-.67-1.61-1l-2.33-1.42c-1.61-.88-3.17-1.85-4.83-2.69L341,135.34l-1.54-.75-1-.49c-1.67-.87-3.46-1.55-5.19-2.35-3.52-1.47-7.15-2.78-10.86-4l-.41-.13q-2.33-.73-4.7-1.38L316,126q-3.2-.86-6.46-1.59-3-.68-6.09-1.26l-2.95-.53q-3.05-.53-6.13-1-3.63-.51-7.27-.9c-6-.65-12-1.06-18.05-1.28q-3-.11-6-.15t-6,0q-3,0-5.93.07t-5.88.16q-2.93.1-5.82.25c-15.4.77-30.1,2.45-43.72,4.32h0l-.17,0c-13.68,1.86-26.2,4.24-37.35,6.32l-4.11.81-4,.78-7.51,1.59-13.25,2.87L127,137l-1,.22-7,1.62-.67.15-1.45.34-.76.17-1.26.29-.69.16-1.25.29-.52.12-1.6.39-2.18.51-4.41,1,1.22.08c-24.81,7.76-38.64,14.47-38.64,14.47s92.56-13.44,120,18.48c5.52,7.64,8.41,17,6.94,28.53-2,12.2-9,27.28-22.63,45.89h0l.06-.07q1.45-1.51,2.9-3l.94-.95,2.06-2,1-1,2-2,1-.92,2.38-2.22.58-.54q1.53-1.41,3.07-2.77l.19-.16q1.41-1.25,2.83-2.47l.68-.58,2.4-2,.7-.58,2.55-2.08L197,226q4.68-3.76,9.34-7.14l.25-.18q1.46-1.06,2.91-2.08l.21-.14q6.32-4.42,12.58-8.17h0C316,151.9,398,202,398,202c-1.14-3.71-2.39-7.38-3.84-10.91C394.06,190.74,393.93,190.44,393.8,190.14Z"/><polygon class="cls-3" points="171.13 249.77 171.13 249.77 171.13 249.77 171.13 249.77"/><path class="cls-3" d="M113.89,430.39c-6.22,1.87-21.18,5.11-33.78-2.12a1.25,1.25,0,0,0-1.73.5,9.71,9.71,0,0,0-.75,5.65c-5.31-2.38-17.88-9.09-19.92-20.05a1.25,1.25,0,0,0-2.09-.68,27.84,27.84,0,0,0-2.9,3.34,66.07,66.07,0,0,1-11.25-31.3,1.25,1.25,0,0,0-.45-.85,1.27,1.27,0,0,0-.92-.28,8,8,0,0,0-4.05,2c-.78-4.46-2-15.31.49-30.75a1.25,1.25,0,0,0-1.79-1.32,15.4,15.4,0,0,0-1.86,1.14,107,107,0,0,1,9.88-27.12,1.25,1.25,0,0,0-1-1.82,10.55,10.55,0,0,0-2.18.17c2.33-5.65,9.15-20.46,19.93-29.24a1.25,1.25,0,0,0-.17-2.05,8.29,8.29,0,0,0-3.43-.9,156.89,156.89,0,0,1,17.59-20.9S2.66,307.69.08,393.3C3.53,462.16,100.53,434.53,113.89,430.39Z"/><path class="cls-3" d="M359.49,508c-.77-13.84-2.13-26.45-3.63-38-15-115.41-112.51-110.07-112.51-110.07-5.41-.41-22,.05-51.72,15a1.25,1.25,0,0,0-.14,2.15,41.05,41.05,0,0,1,4.88,4c-7.11,1.58-29.92,7.31-49.57,19.45a1.25,1.25,0,0,0,.32,2.27,12.51,12.51,0,0,1,6.3,4.85s63.69,12,95.15,100.57h0c5.79,11.28,3.48,28.45-3.5,41.86-12.6,24.18,6.68,58.29,6.68,58.29h0a37.84,37.84,0,0,0,5.38,9.23c17.22,21.79,68.7,9.21,68.7,9.21-31.35-16.48-22.76-29.37-9.31-44.44C316.52,582.48,359.8,547,359.49,508Z"/><path class="cls-2" d="M489,393a172.85,172.85,0,0,1-41.8-17.33,1.25,1.25,0,0,0-1.71.45,27.38,27.38,0,0,0-2.44,6.22c-7.62-3.69-44.36-21.12-72.55-27.8a1.25,1.25,0,0,0-1.53,1.35l.73,6.6c-6.79-4.25-28.74-15.86-68.18-17.59a1.22,1.22,0,0,0-1.1.56,1.25,1.25,0,0,0-.08,1.23,24.63,24.63,0,0,1,1.77,7.28c-7.6-2.42-33-9.18-61-1.83a1.25,1.25,0,0,0-.71,1.92,26.4,26.4,0,0,1,2.88,5.88S340.88,354.6,355.86,470c1.5,11.55,2.86,24.15,3.63,38,21.17,7.79,41.28,16.4,59.68,23.38,25.15,9.54,69.08,21.67,114.09,22.39C582.82,425.73,489,393,489,393Z"/><path class="cls-2" d="M680.71,424.44c0-.6,0-1.21-.06-1.81s0-1.14-.07-1.7-.05-1.22-.09-1.83-.08-1.24-.12-1.86q-.1-1.46-.22-2.91c0-.55-.09-1.11-.14-1.66s-.12-1.26-.19-1.88-.11-1-.17-1.56q-.13-1.2-.28-2.39c-.1-.78-.2-1.56-.31-2.34s-.18-1.26-.28-1.9-.15-1-.22-1.46-.2-1.27-.3-1.9c-.08-.48-.16-1-.25-1.44q-.28-1.64-.59-3.26c-.09-.45-.17-.91-.26-1.36q-.19-1-.39-1.91l-.28-1.32q-.7-3.27-1.49-6.47l-.31-1.24q-.24-.95-.48-1.89l-.31-1.16q-.45-1.69-.92-3.36l-.3-1.08q-.27-.94-.54-1.86l-.33-1.12q-.93-3.1-1.92-6.1l-.34-1-.6-1.78-.34-1q-.56-1.63-1.14-3.22l-.31-.86-.63-1.71-.37-1-.64-1.68-.16-.41q-.66-1.71-1.33-3.38l-.37-.93-.65-1.58-.36-.87q-.6-1.44-1.2-2.84l-.31-.72-.65-1.48-.39-.87-.64-1.43-.28-.61q-.6-1.32-1.19-2.6l-.38-.83-.61-1.3-.38-.8-1.05-2.17-.37-.75-.57-1.15-.4-.8-.54-1.08-.42-.82-.88-1.71-.39-.75-.5-.95-.4-.74-.67-1.25-.5-.93-.42-.76-.39-.7-.39-.71-.43-.77-.54-.95-.38-.66-.32-.55-.37-.63-.26-.44-.53-.89-.23-.38-.3-.51-.21-.35-.34-.56-.19-.3-.27-.44-.13-.2-.21-.34-.08-.12-.22-.34,0-.07-.11-.18,0,0,0-.07h0q-1.14-2-2.3-3.9l-.73-1.21q-.81-1.34-1.63-2.67l-.84-1.35L636.43,297l-.81-1.28-1.73-2.68-.67-1q-1.09-1.67-2.19-3.31l-.22-.33Q626.91,282.6,623,277v0c-17-24.05-33.81-44.5-41.54-61.06-23.33-50,26.67-95.33,36-85.33,0,0-15.18-29.75-41.72-28.47-.47,0-46.89,5.19-72.9,55.88a1.25,1.25,0,0,0,.77,1.77l5.87,1.69c-5.3,5.55-18.56,24-11.7,64.93a1.25,1.25,0,0,0,1.59,1l5.88-1.77c-.35,6.37.44,30.56,28,59.65a1.25,1.25,0,0,0,.91.39h.06a1.25,1.25,0,0,0,.93-.48l4.2-5.43a246.41,246.41,0,0,1,13.38,27.8q1.42,3.45,2.87,7.24l.07.19q.7,1.84,1.4,3.76l.11.3q.65,1.79,1.29,3.63l.13.37q.65,1.89,1.3,3.84l.23.71q.59,1.81,1.17,3.67l.12.38c.41,1.31.81,2.64,1.2,4l.27.93c.4,1.37.79,2.75,1.17,4.16a1.25,1.25,0,0,0,1.21.92l.26,0a48.55,48.55,0,0,0,7.56-2.43c.08,5.57-2.08,24-31.82,39.32a1.25,1.25,0,0,0-.48,1.78,25.65,25.65,0,0,0,6.94,6.49s65.62-4.32,84.3,46.77c21.06,68.18-19,105-20.35,106.13,18.53-8.37,35-21,47.65-39.32,15.93-23.1,21.55-48.51,21.44-73.07Q680.75,425.87,680.71,424.44Z"/><path class="cls-3" d="M555.06,369.84l.71-.56Z"/><path class="cls-3" d="M543.69,377.24l.68-.38Z"/><path class="cls-3" d="M550.84,372.89l.7-.48Z"/><path class="cls-3" d="M546.1,375.87l.62-.36Z"/><path class="cls-3" d="M548.83,374.21l.43-.28Z"/><path class="cls-3" d="M552.81,371.52l.63-.46Z"/><path class="cls-3" d="M562.35,363.2q.92-1,1.74-2Q563.27,362.2,562.35,363.2Z"/><path class="cls-3" d="M561.34,364.26l.82-.86Z"/><path class="cls-3" d="M585.7,602.84c-8.14-1.77-19.84-6.05-10.1-25.25s36-37.86,36-37.86h0l0,0,.12-.11h0l.18-.17,0,0,.27-.26h0l.37-.37,0,0,.38-.39.11-.11.39-.41.1-.11c.35-.37.74-.79,1.15-1.25l.13-.15.53-.6.15-.18.63-.74.07-.08.76-.92.08-.1.69-.86.18-.23.66-.86.16-.21q.84-1.11,1.72-2.36l.16-.23.73-1.07.2-.29.82-1.24.08-.13q.47-.73.95-1.5l.06-.1.85-1.41.19-.33.77-1.34.16-.28q.93-1.67,1.85-3.48l.15-.3q.38-.76.76-1.55l.18-.38q.41-.87.82-1.76l.06-.14q.45-1,.9-2.07l0-.11q.4-1,.78-1.94l.16-.42q.35-.89.68-1.81l.13-.35q.8-2.21,1.52-4.57l.11-.37q.3-1,.59-2l.13-.48q.31-1.12.59-2.27l0-.16q.32-1.3.61-2.63l0-.08q.27-1.22.51-2.48l.09-.5q.21-1.13.4-2.28l.07-.43q.44-2.75.74-5.64l0-.42q.12-1.23.22-2.49l0-.56q.1-1.37.16-2.77c0-.06,0-.12,0-.18q.07-1.57.09-3.18s0-.06,0-.09q0-1.48,0-3c0-.2,0-.4,0-.6q0-1.35-.08-2.72c0-.17,0-.34,0-.52q-.15-3.27-.5-6.68l-.05-.5q-.16-1.45-.35-2.92l-.09-.67q-.22-1.59-.48-3.21l0-.24q-.3-1.83-.66-3.7l0-.09q-.34-1.72-.73-3.48l-.16-.7q-.35-1.55-.75-3.13l-.15-.62q-.91-3.53-2-7.19c-18.76-50.91-84.24-46.61-84.24-46.61h0c-5.7,2.16-24.46,7.38-58-.92a1.25,1.25,0,0,0-1.54,1.08A16.73,16.73,0,0,0,489,393s93.79,32.72,44.22,160.77c-10.42,16.64-5.34,35.7-5.34,35.7h0a71.15,71.15,0,0,0,6.48,18.22c5.42,15.92,24.48,25.78,49.24,19.5,41.67-10.56,75.69,5.45,75.69,5.45C645.85,597.13,609.68,604.22,585.7,602.84Z"/><path class="cls-3" d="M556.67,368.55l.78-.65Z"/><path class="cls-3" d="M560.93,364.67l-.84.82Z"/><path class="cls-3" d="M558.18,367.25q.75-.67,1.46-1.33Q558.93,366.59,558.18,367.25Z"/><path class="cls-2" d="M257.13,617.7a37.85,37.85,0,0,1-5.38-9.23c-29.86,2.55-31.54,29-31.54,29,12.1-10.35,41.95-9.72,56.71-8.69C268.95,627,261.79,623.59,257.13,617.7Z"/><path class="cls-2" d="M534.39,607.7c-27.72,3.64-29.31,28.75-29.31,28.75,10.79-9.23,35.71-9.73,51.44-9C545.49,624.34,537.58,617.08,534.39,607.7Z"/><path class="cls-2" d="M387.34,619.74C382.45,609.8,372.45,597,353.45,598c-27.44,1.43-30,6.35-37,0-4.59-5-3.55-11.51.08-15.55h0c-13.45,15.07-22,28,9.31,44.44,0,0,48.45-8.93,65.6,4.1A33,33,0,0,0,387.34,619.74Z"/><path class="cls-2" d="M608.42,623.7l1.68,0,1.92,0h1.57q1.82,0,3.58.07l1.39,0,1.92.11,1.38.09,1.86.15,1.32.12,1.82.19,1.19.14q3.2.39,6.14.9l1.08.19,1.58.3,1.11.22,1.46.31,1.11.25,1.34.31,1.26.31,1.86.47,1.26.34.93.26,1.19.34.78.23,1.27.39.54.17,1.65.55,6.67,2.57s-8.35-27.21-30.26-33.14-17.32,8.15-49.7,1.34c-3.59-1.63-6.7-4.29-7.33-9,.5,6.22,3.61,19.79,19.9,33.53h0a118.41,118.41,0,0,1,12.78-1.54l1.76-.11Zm-27.9-22.35-.83-.34Z"/><path class="cls-3" d="M720,130.79a29.36,29.36,0,0,1-5.88,13.91c-29.49,5.08-40.68,1-53.89-26.44-5.64-11.72-19.88-16.77-34.33-18.71a109.74,109.74,0,0,0-12.75-1.1h0l-1.44,0-2.74,0c-22.48,0-33.29,3.77-33.29,3.77.7,0,1.38,0,2.06,0l.88,0H579c23.76,1.14,37.58,26.82,38.4,28.38l0,.08c7.29,7.82,8.87,22.34,9.21,28.32l-.61.3-.07.26,0,0c-12.35-.55-19.71,4.43-19.71,4.43,8.38.14,22,9.3,22,9.3-16.06-2-27.58,8.62-27.58,8.62,6.68-.55,11.2.67,39.54,14.85s54.18,7,69.27,10.29,18.42,22.14,23.75,19.14c4.59-2.59,11.91-15.24,13.84-18.68a1,1,0,0,1-.49-.64c0-.11-1.63-5.8-15.06-11.88-5.94-2.69-11.25-2.66-16.88-2.63-7.7,0-15.66.09-25.94-6.61-5.2-3.39-11.14-5-16.89-6.48-9.33-2.47-18.15-4.8-21-14.74a11.51,11.51,0,0,1,0-4.37h.37a1,1,0,0,1,.93.58c4.05,8.73,12.36,9.31,22,10,6.09.43,12.38.87,18.42,3.34,10.8,4.43,18.31,2.95,25.57,1.52,5.49-1.08,11.17-2.2,17.93-.56,11.66,2.81,16.1,6.88,17.65,8.85C759.37,134.31,720,130.79,720,130.79Z"/><path class="cls-2" d="M576.13,102c2.19-.68,12.93-3.67,32.86-3.63l2.74,0,1.44,0h0a109.74,109.74,0,0,1,12.75,1.1l.33,0h0c-1.59-30.73-47.05-44.26-47.05-44.26h0c-1.72-.57-3.47-1.05-5.24-1.57-1.14-.34-2.3-.61-3.47-.92L567,52.11c-1.18-.26-2.36-.48-3.56-.68l-.9-.16-.45-.08-.22,0h-.06l.36.06-.1,0-1.68-.32-1.68-.32c-.25-.06-.62-.11-.78-.17l-.55-.16c-.75-.22-1.46-.32-2.27-.58a35.82,35.82,0,0,1-9.21-4.14,34.64,34.64,0,0,1-7.6-6.44c-1.09-1.29-2.2-2.6-3.2-4s-1.91-2.87-2.8-4.35-1.64-3-2.41-4.51-1.4-3-2.06-4.51-1.18-3-1.75-4.36l-1.46-4.08-1.22-3.69c-.19-.58-.36-1.14-.52-1.67l-.48-1.54c-.57-2-1.09-3.54-1.35-4.63L520.55,0s-.33.54-.83,1.6a46.86,46.86,0,0,0-1.89,4.69c-.36,1-.72,2.18-1,3.45s-.66,2.65-.94,4.15a56.93,56.93,0,0,0-1,10.28c0,1,0,2,0,3s.14,2,.22,3.09.23,2.13.39,3.22.42,2.19.64,3.32.56,2.27.85,3.43.78,2.3,1.18,3.48,1,2.34,1.46,3.54,1.21,2.34,1.83,3.53,1.43,2.31,2.18,3.49,1.67,2.26,2.56,3.37,1.94,2.13,2.94,3.19,2.15,2,3.27,3a48.29,48.29,0,0,0,15.57,8.4c1.41.48,3,.85,4.52,1.25l1.15.28c.21.05.35.07.48.1l.42.07,1.69.28,1.69.27C579.19,77.9,577.13,96.76,576.13,102Z"/><path class="cls-2" d="M578.64,102.16h-.56l1,0h-.48Z"/><path class="cls-2" d="M581.11,102.35h0Z"/><path class="cls-2" d="M577.9,102.14h-.14c-.55,0-1.1,0-1.66,0C576.71,102.13,577.31,102.13,577.9,102.14Z"/><rect class="cls-3" x="45.04" y="657.71" width="664.07" height="13.58"/><path class="cls-4" d="M259.57,722.56a46,46,0,1,0,28.55,82v1.23a8.71,8.71,0,0,0,17.42,0V768.54a46,46,0,0,0-46-46Zm20.2,66.18a28.61,28.61,0,1,1,8.35-20.2,27.28,27.28,0,0,1-8.35,20.2Z"/><path class="cls-4" d="M198,728a10.49,10.49,0,0,0-3.34-2.12,46.45,46.45,0,0,0-17.62-3.28,44.52,44.52,0,0,0-28.55,9.94v-1.23a8.71,8.71,0,0,0-17.42,0V805.8a8.71,8.71,0,0,0,17.42,0V768.54A28.51,28.51,0,0,1,177.09,740a28.5,28.5,0,0,1,11.07,2.1,8.72,8.72,0,0,0,12.47-7.86,8.63,8.63,0,0,0-2.48-6.15Z"/><path class="cls-4" d="M95.76,740.12a33.66,33.66,0,0,0-2.26-45,32.48,32.48,0,0,0-23.74-9.82H44.92A8.73,8.73,0,0,0,36.21,694V805.8a8.73,8.73,0,0,0,8.71,8.71H76a39.83,39.83,0,0,0,28.15-67.94A42.64,42.64,0,0,0,95.76,740.12ZM53.63,735V702.72H69.76a16.13,16.13,0,0,1,0,32.27ZM76,797.09H53.63V752.41H76a22.34,22.34,0,1,1,0,44.69Z"/><path class="cls-4" d="M397.95,722.56a9,9,0,0,0-7.79,4.73l-26.37,57.6-26.3-57.45-.07-.15a9.54,9.54,0,0,0-1.64-2.25,8.63,8.63,0,0,0-6.15-2.48,8.73,8.73,0,0,0-8.71,8.71,8.61,8.61,0,0,0,.69,3.45l34.47,75.08a6.77,6.77,0,0,0,1.55,2.24,9,9,0,0,0,12.35,0,7.72,7.72,0,0,0,1.51-2.28L406,734.66a8.54,8.54,0,0,0,.67-3.39,8.73,8.73,0,0,0-8.71-8.71Z"/><path class="cls-4" d="M464.9,722.56a41.24,41.24,0,0,0-25.45,8.33V694A8.71,8.71,0,0,0,422,694V805.8a8.71,8.71,0,0,0,17.42,0V765.43a25.45,25.45,0,0,1,50.9,0V805.8a8.71,8.71,0,0,0,17.42,0V765.43a42.92,42.92,0,0,0-42.87-42.87Z"/><path class="cls-4" d="M676.45,740a27.17,27.17,0,0,1,18.76,7.12,8.54,8.54,0,0,0,5.54,2,8.42,8.42,0,0,0,6.15-2.56,8.53,8.53,0,0,0,2.56-6.15,8.76,8.76,0,0,0-3-6.7,46,46,0,1,0,0,69.76l.16-.15a8.89,8.89,0,0,0,2.64-6.31,8.73,8.73,0,0,0-8.71-8.71A8.58,8.58,0,0,0,695.2,790l-.14.12a27,27,0,0,1-18.61,7,28.55,28.55,0,1,1,0-57.11Z"/><path class="cls-4" d="M569.12,722.56a46,46,0,1,0,28.55,82v1.23a8.71,8.71,0,0,0,17.42,0V768.54a46,46,0,0,0-46-46Zm0,74.53a28.51,28.51,0,1,1,20.2-8.35A27.28,27.28,0,0,1,569.12,797.09Z"/></g></g></svg>